<?xml version="1.0" encoding="UTF-8" standalone="no"?>
<!DOCTYPE svg PUBLIC "-//W3C//DTD SVG 1.1//EN"
 "http://www.w3.org/Graphics/SVG/1.1/DTD/svg11.dtd">
<!-- Generated by graphviz version 12.2.1 (20241206.2353)
 -->
<!-- Title: architecture Pages: 1 -->
<svg width="819pt" height="385pt"
 viewBox="0.00 0.00 818.55 385.06" xmlns="http://www.w3.org/2000/svg" xmlns:xlink="http://www.w3.org/1999/xlink">
<g id="graph0" class="graph" transform="scale(1 1) rotate(0) translate(4 381.06)">
<title>architecture</title>
<polygon fill="white" stroke="none" points="-4,4 -4,-381.06 814.55,-381.06 814.55,4 -4,4"/>
<text text-anchor="start" x="229.77" y="-356.96" font-family="Helvetica,sans-Serif" font-weight="bold" font-size="18.00">SecureBank Multi&#45;Agent Support System</text>
<text text-anchor="start" x="211.77" y="-345.61" font-family="Helvetica,sans-Serif" font-size="11.00" fill="#666666">LangGraph state machine · every query = supervisor + 1 specialist (≥2 LLM calls)</text>
<!-- query -->
<g id="node1" class="node">
<title>query</title>
<ellipse fill="#1d3557" stroke="black" cx="333.08" cy="-318.82" rx="79.85" ry="21.23"/>
<text text-anchor="middle" x="333.08" y="-313.8" font-family="Helvetica,sans-Serif" font-size="12.00" fill="white">Customer Query</text>
</g>
<!-- supervisor -->
<g id="node3" class="node">
<title>supervisor</title>
<path fill="#e63946" stroke="black" d="M411.29,-260.59C411.29,-260.59 254.88,-260.59 254.88,-260.59 248.88,-260.59 242.88,-254.59 242.88,-248.59 242.88,-248.59 242.88,-223.31 242.88,-223.31 242.88,-217.31 248.88,-211.31 254.88,-211.31 254.88,-211.31 411.29,-211.31 411.29,-211.31 417.29,-211.31 423.29,-217.31 423.29,-223.31 423.29,-223.31 423.29,-248.59 423.29,-248.59 423.29,-254.59 417.29,-260.59 411.29,-260.59"/>
<text text-anchor="start" x="293.33" y="-241.55" font-family="Helvetica,sans-Serif" font-weight="bold" font-size="12.00" fill="white">SUPERVISOR</text>
<text text-anchor="start" x="274.58" y="-231.45" font-family="Helvetica,sans-Serif" font-size="10.00" fill="white">classify_intent · 1 LLM call</text>
<text text-anchor="start" x="255.83" y="-221.45" font-family="Helvetica,sans-Serif" font-size="10.00" fill="white">policy / account_status / escalation</text>
</g>
<!-- query&#45;&gt;supervisor -->
<g id="edge1" class="edge">
<title>query&#45;&gt;supervisor</title>
<path fill="none" stroke="#555555" d="M333.08,-297.42C333.08,-289.76 333.08,-280.82 333.08,-272.2"/>
<polygon fill="#555555" stroke="#555555" points="336.59,-272.31 333.09,-262.31 329.59,-272.31 336.59,-272.31"/>
</g>
<!-- answer -->
<g id="node2" class="node">
<title>answer</title>
<ellipse fill="#1d3557" stroke="black" cx="303.08" cy="-28.14" rx="94.7" ry="21.23"/>
<text text-anchor="middle" x="303.08" y="-23.12" font-family="Helvetica,sans-Serif" font-size="12.00" fill="white">Answer to Customer</text>
</g>
<!-- policy -->
<g id="node4" class="node">
<title>policy</title>
<path fill="#457b9d" stroke="black" d="M229.04,-164.06C229.04,-164.06 131.12,-164.06 131.12,-164.06 125.12,-164.06 119.12,-158.06 119.12,-152.06 119.12,-152.06 119.12,-126.78 119.12,-126.78 119.12,-120.78 125.12,-114.78 131.12,-114.78 131.12,-114.78 229.04,-114.78 229.04,-114.78 235.04,-114.78 241.04,-120.78 241.04,-126.78 241.04,-126.78 241.04,-152.06 241.04,-152.06 241.04,-158.06 235.04,-164.06 229.04,-164.06"/>
<text text-anchor="start" x="135.08" y="-145.02" font-family="Helvetica,sans-Serif" font-weight="bold" font-size="12.00" fill="white">POLICY AGENT</text>
<text text-anchor="start" x="132.08" y="-134.92" font-family="Helvetica,sans-Serif" font-size="10.00" fill="white">RAG over policy docs</text>
<text text-anchor="start" x="134.71" y="-124.92" font-family="Helvetica,sans-Serif" font-size="10.00" fill="white">most expensive path</text>
</g>
<!-- supervisor&#45;&gt;policy -->
<g id="edge2" class="edge">
<title>supervisor&#45;&gt;policy</title>
<path fill="none" stroke="#555555" d="M294.08,-210.85C274.21,-198.57 249.85,-183.53 228.76,-170.49"/>
<polygon fill="#555555" stroke="#555555" points="230.65,-167.55 220.31,-165.27 226.97,-173.5 230.65,-167.55"/>
<text text-anchor="middle" x="276.92" y="-183.81" font-family="Helvetica,sans-Serif" font-size="10.00"> &#160;policy</text>
</g>
<!-- account -->
<g id="node5" class="node">
<title>account</title>
<path fill="#2a9d8f" stroke="black" d="M579.8,-164.06C579.8,-164.06 444.38,-164.06 444.38,-164.06 438.38,-164.06 432.38,-158.06 432.38,-152.06 432.38,-152.06 432.38,-126.78 432.38,-126.78 432.38,-120.78 438.38,-114.78 444.38,-114.78 444.38,-114.78 579.8,-114.78 579.8,-114.78 585.8,-114.78 591.8,-120.78 591.8,-126.78 591.8,-126.78 591.8,-152.06 591.8,-152.06 591.8,-158.06 585.8,-164.06 579.8,-164.06"/>
<text text-anchor="start" x="458.84" y="-145.02" font-family="Helvetica,sans-Serif" font-weight="bold" font-size="12.00" fill="white">ACCOUNT AGENT</text>
<text text-anchor="start" x="453.21" y="-134.92" font-family="Helvetica,sans-Serif" font-size="10.00" fill="white">regex extract ACC&#45;XXXXX</text>
<text text-anchor="start" x="445.34" y="-124.92" font-family="Helvetica,sans-Serif" font-size="10.00" fill="white">mock DB lookup, LLM formats</text>
</g>
<!-- supervisor&#45;&gt;account -->
<g id="edge3" class="edge">
<title>supervisor&#45;&gt;account</title>
<path fill="none" stroke="#555555" d="M378.72,-210.85C402.39,-198.35 431.5,-182.98 456.47,-169.79"/>
<polygon fill="#555555" stroke="#555555" points="457.99,-172.95 465.2,-165.18 454.72,-166.76 457.99,-172.95"/>
<text text-anchor="middle" x="464.33" y="-183.81" font-family="Helvetica,sans-Serif" font-size="10.00"> &#160;account_status</text>
</g>
<!-- escalation -->
<g id="node6" class="node">
<title>escalation</title>
<path fill="#e9a13b" stroke="black" d="M395.54,-164.06C395.54,-164.06 270.62,-164.06 270.62,-164.06 264.62,-164.06 258.62,-158.06 258.62,-152.06 258.62,-152.06 258.62,-126.78 258.62,-126.78 258.62,-120.78 264.62,-114.78 270.62,-114.78 270.62,-114.78 395.54,-114.78 395.54,-114.78 401.54,-114.78 407.54,-120.78 407.54,-126.78 407.54,-126.78 407.54,-152.06 407.54,-152.06 407.54,-158.06 401.54,-164.06 395.54,-164.06"/>
<text text-anchor="start" x="271.58" y="-145.02" font-family="Helvetica,sans-Serif" font-weight="bold" font-size="12.00" fill="white">ESCALATION AGENT</text>
<text text-anchor="start" x="292.21" y="-134.92" font-family="Helvetica,sans-Serif" font-size="10.00" fill="white">empathy + handoff</text>
<text text-anchor="start" x="289.96" y="-124.92" font-family="Helvetica,sans-Serif" font-size="10.00" fill="white">no retrieval, no data</text>
</g>
<!-- supervisor&#45;&gt;escalation -->
<g id="edge4" class="edge">
<title>supervisor&#45;&gt;escalation</title>
<path fill="none" stroke="#555555" d="M333.08,-211.1C333.08,-200.35 333.08,-187.44 333.08,-175.61"/>
<polygon fill="#555555" stroke="#555555" points="336.59,-175.78 333.09,-165.78 329.59,-175.78 336.59,-175.78"/>
<text text-anchor="middle" x="358.21" y="-183.81" font-family="Helvetica,sans-Serif" font-size="10.00"> &#160;escalation</text>
</g>
<!-- policy&#45;&gt;answer -->
<g id="edge7" class="edge">
<title>policy&#45;&gt;answer</title>
<path fill="none" stroke="#555555" d="M207.08,-114.44C226.3,-97.36 252.16,-74.38 272.21,-56.57"/>
<polygon fill="#555555" stroke="#555555" points="274.4,-59.31 279.55,-50.05 269.75,-54.08 274.4,-59.31"/>
</g>
<!-- chroma -->
<g id="node7" class="node">
<title>chroma</title>
<path fill="#a8dadc" stroke="black" d="M190.17,-49.67C190.17,-52.31 147.55,-54.46 95.08,-54.46 42.62,-54.46 0,-52.31 0,-49.67 0,-49.67 0,-6.61 0,-6.61 0,-3.97 42.62,-1.82 95.08,-1.82 147.55,-1.82 190.17,-3.97 190.17,-6.61 190.17,-6.61 190.17,-49.67 190.17,-49.67"/>
<path fill="none" stroke="black" d="M190.17,-49.67C190.17,-47.03 147.55,-44.89 95.08,-44.89 42.62,-44.89 0,-47.03 0,-49.67"/>
<text text-anchor="start" x="41.46" y="-28.24" font-family="Helvetica,sans-Serif" font-size="12.00" fill="#1d3557">Chroma vector store</text>
<text text-anchor="start" x="12.96" y="-19.09" font-family="Helvetica,sans-Serif" font-size="9.00" fill="#1d3557">4 policy .md docs, chunked + embedded</text>
</g>
<!-- policy&#45;&gt;chroma -->
<g id="edge5" class="edge">
<title>policy&#45;&gt;chroma</title>
<path fill="none" stroke="#555555" stroke-dasharray="5,2" d="M154.65,-105.71C144.3,-92.41 132.34,-77.03 121.86,-63.56"/>
<polygon fill="#555555" stroke="#555555" points="151.6,-107.5 160.5,-113.24 157.13,-103.2 151.6,-107.5"/>
<polygon fill="#555555" stroke="#555555" points="124.71,-61.53 115.81,-55.78 119.19,-65.82 124.71,-61.53"/>
<text text-anchor="middle" x="176.32" y="-87.28" font-family="Helvetica,sans-Serif" font-size="10.00">similarity</text>
<text text-anchor="middle" x="176.32" y="-76.03" font-family="Helvetica,sans-Serif" font-size="10.00">search (top_k)</text>
</g>
<!-- account&#45;&gt;answer -->
<g id="edge8" class="edge">
<title>account&#45;&gt;answer</title>
<path fill="none" stroke="#555555" d="M465.96,-114.3C431.28,-96.17 383.96,-71.43 349.27,-53.29"/>
<polygon fill="#555555" stroke="#555555" points="351.21,-50.35 340.72,-48.82 347.96,-56.56 351.21,-50.35"/>
</g>
<!-- mockdb -->
<g id="node8" class="node">
<title>mockdb</title>
<path fill="#a8dadc" stroke="black" d="M631.92,-49.67C631.92,-52.31 583.59,-54.46 524.09,-54.46 464.58,-54.46 416.25,-52.31 416.25,-49.67 416.25,-49.67 416.25,-6.61 416.25,-6.61 416.25,-3.97 464.58,-1.82 524.09,-1.82 583.59,-1.82 631.92,-3.97 631.92,-6.61 631.92,-6.61 631.92,-49.67 631.92,-49.67"/>
<path fill="none" stroke="black" d="M631.92,-49.67C631.92,-47.03 583.59,-44.89 524.09,-44.89 464.58,-44.89 416.25,-47.03 416.25,-49.67"/>
<text text-anchor="start" x="457.34" y="-28.24" font-family="Helvetica,sans-Serif" font-size="12.00" fill="#1d3557">MOCK_ACCOUNTS dict</text>
<text text-anchor="start" x="429.21" y="-19.09" font-family="Helvetica,sans-Serif" font-size="9.00" fill="#1d3557">ACC&#45;12345 · ACC&#45;67890 · ACC&#45;11111 (frozen)</text>
</g>
<!-- account&#45;&gt;mockdb -->
<g id="edge6" class="edge">
<title>account&#45;&gt;mockdb</title>
<path fill="none" stroke="#555555" stroke-dasharray="5,2" d="M515.93,-103.42C517.25,-91.39 518.73,-77.89 520.07,-65.74"/>
<polygon fill="#555555" stroke="#555555" points="512.5,-102.61 514.88,-112.93 519.45,-103.38 512.5,-102.61"/>
<polygon fill="#555555" stroke="#555555" points="523.51,-66.41 521.13,-56.09 516.55,-65.65 523.51,-66.41"/>
<text text-anchor="middle" x="545.05" y="-81.66" font-family="Helvetica,sans-Serif" font-size="10.00">lookup by id</text>
</g>
<!-- ssn -->
<g id="node9" class="node">
<title>ssn</title>
<polygon fill="#fff3cd" stroke="black" points="804.55,-56.28 649.62,-56.28 649.62,0 810.55,0 810.55,-50.28 804.55,-56.28"/>
<polyline fill="none" stroke="black" points="804.55,-56.28 804.55,-50.28"/>
<polyline fill="none" stroke="black" points="810.55,-50.28 804.55,-50.28"/>
<text text-anchor="start" x="664.84" y="-37.24" font-family="Helvetica,sans-Serif" font-weight="bold" font-size="12.00" fill="#664d03">⚠ planted vulnerability</text>
<text text-anchor="start" x="662.59" y="-28.09" font-family="Helvetica,sans-Serif" font-size="9.00" fill="#664d03">account agent passes SSN last&#45;4</text>
<text text-anchor="start" x="667.84" y="-19.09" font-family="Helvetica,sans-Serif" font-size="9.00" fill="#664d03">into the LLM prompt (line 376).</text>
<text text-anchor="start" x="683.96" y="-10.09" font-family="Helvetica,sans-Serif" font-size="9.00" fill="#664d03">Module C catches this.</text>
</g>
<!-- account&#45;&gt;ssn -->
<g id="edge10" class="edge">
<title>account&#45;&gt;ssn</title>
<path fill="none" stroke="#b8860b" stroke-dasharray="1,5" d="M560.2,-114.3C594.18,-97.27 639.78,-74.41 675.18,-56.66"/>
</g>
<!-- escalation&#45;&gt;answer -->
<g id="edge9" class="edge">
<title>escalation&#45;&gt;answer</title>
<path fill="none" stroke="#555555" d="M326.5,-114.44C322.14,-98.56 316.38,-77.59 311.67,-60.41"/>
<polygon fill="#555555" stroke="#555555" points="315.17,-59.93 309.15,-51.22 308.42,-61.79 315.17,-59.93"/>
</g>
</g>
</svg>
