<?xml version="1.0" encoding="UTF-8" standalone="no"?>
<!DOCTYPE svg PUBLIC "-//W3C//DTD SVG 1.1//EN"
 "http://www.w3.org/Graphics/SVG/1.1/DTD/svg11.dtd">
<!-- Generated by graphviz version 12.2.1 (20241206.2353)
 -->
<!-- Title: hardening_loop Pages: 1 -->
<svg width="892pt" height="156pt"
 viewBox="0.00 0.00 892.40 155.63" xmlns="http://www.w3.org/2000/svg" xmlns:xlink="http://www.w3.org/1999/xlink">
<g id="graph0" class="graph" transform="scale(1 1) rotate(0) translate(4 151.63)">
<title>hardening_loop</title>
<polygon fill="white" stroke="none" points="-4,4 -4,-151.63 888.4,-151.63 888.4,4 -4,4"/>
<text text-anchor="start" x="321.83" y="-127.53" font-family="Helvetica,sans-Serif" font-weight="bold" font-size="18.00">Production Hardening Loop</text>
<text text-anchor="start" x="262.95" y="-116.18" font-family="Helvetica,sans-Serif" font-size="11.00" fill="#666666">You can&#39;t evaluate or secure what you can&#39;t see — observability comes first</text>
<!-- deploy -->
<g id="node1" class="node">
<title>deploy</title>
<path fill="#6c757d" stroke="black" d="M69.93,-101.11C69.93,-101.11 12,-101.11 12,-101.11 6,-101.11 0,-95.11 0,-89.11 0,-89.11 0,-77.11 0,-77.11 0,-71.11 6,-65.11 12,-65.11 12,-65.11 69.93,-65.11 69.93,-65.11 75.93,-65.11 81.93,-71.11 81.93,-77.11 81.93,-77.11 81.93,-89.11 81.93,-89.11 81.93,-95.11 75.93,-101.11 69.93,-101.11"/>
<text text-anchor="start" x="15.84" y="-79.08" font-family="Helvetica,sans-Serif" font-weight="bold" font-size="12.00" fill="white">DEPLOY</text>
</g>
<!-- a -->
<g id="node2" class="node">
<title>a</title>
<path fill="#e63946" stroke="black" d="M217.36,-110.63C217.36,-110.63 130.93,-110.63 130.93,-110.63 124.93,-110.63 118.93,-104.63 118.93,-98.63 118.93,-98.63 118.93,-67.59 118.93,-67.59 118.93,-61.59 124.93,-55.59 130.93,-55.59 130.93,-55.59 217.36,-55.59 217.36,-55.59 223.36,-55.59 229.36,-61.59 229.36,-67.59 229.36,-67.59 229.36,-98.63 229.36,-98.63 229.36,-104.63 223.36,-110.63 217.36,-110.63"/>
<text text-anchor="start" x="144.52" y="-88.71" font-family="Helvetica,sans-Serif" font-weight="bold" font-size="12.00" fill="white">OBSERVE</text>
<text text-anchor="start" x="134.77" y="-78.61" font-family="Helvetica,sans-Serif" font-size="10.00" fill="white">Module A — see it</text>
<text text-anchor="start" x="135.9" y="-68.61" font-family="Helvetica,sans-Serif" font-size="10.00" fill="white">LangSmith traces</text>
</g>
<!-- deploy&#45;&gt;a -->
<g id="edge1" class="edge">
<title>deploy&#45;&gt;a</title>
<path fill="none" stroke="#555555" stroke-width="1.4" d="M82.39,-83.11C90.08,-83.11 98.31,-83.11 106.57,-83.11"/>
<polygon fill="#555555" stroke="#555555" stroke-width="1.4" points="106.49,-86.61 116.49,-83.11 106.49,-79.61 106.49,-86.61"/>
</g>
<!-- b -->
<g id="node3" class="node">
<title>b</title>
<path fill="#457b9d" stroke="black" d="M525.04,-110.63C525.04,-110.63 356.86,-110.63 356.86,-110.63 350.86,-110.63 344.86,-104.63 344.86,-98.63 344.86,-98.63 344.86,-67.59 344.86,-67.59 344.86,-61.59 350.86,-55.59 356.86,-55.59 356.86,-55.59 525.04,-55.59 525.04,-55.59 531.04,-55.59 537.04,-61.59 537.04,-67.59 537.04,-67.59 537.04,-98.63 537.04,-98.63 537.04,-104.63 531.04,-110.63 525.04,-110.63"/>
<text text-anchor="start" x="409.08" y="-88.71" font-family="Helvetica,sans-Serif" font-weight="bold" font-size="12.00" fill="white">EVALUATE</text>
<text text-anchor="start" x="389.58" y="-78.61" font-family="Helvetica,sans-Serif" font-size="10.00" fill="white">Module B — measure it</text>
<text text-anchor="start" x="360.7" y="-68.61" font-family="Helvetica,sans-Serif" font-size="10.00" fill="white">datasets · MRR · DeepEval · G&#45;Eval</text>
</g>
<!-- a&#45;&gt;b -->
<g id="edge2" class="edge">
<title>a&#45;&gt;b</title>
<path fill="none" stroke="#555555" stroke-width="1.4" d="M229.69,-83.11C259.41,-83.11 297.25,-83.11 332.62,-83.11"/>
<polygon fill="#555555" stroke="#555555" stroke-width="1.4" points="332.38,-86.61 342.38,-83.11 332.38,-79.61 332.38,-86.61"/>
</g>
<!-- a&#45;&gt;b -->
<g id="edge6" class="edge">
<title>a&#45;&gt;b</title>
<path fill="none" stroke="#e63946" stroke-width="1.4" stroke-dasharray="5,2" d="M241.27,-60.7C243.31,-60.29 245.35,-59.93 247.36,-59.61 278.96,-54.59 313.63,-56.54 344.74,-60.96"/>
<polygon fill="#e63946" stroke="#e63946" stroke-width="1.4" points="240.52,-57.28 231.57,-62.94 242.1,-64.1 240.52,-57.28"/>
<text text-anchor="start" x="247.36" y="-70.56" font-family="Helvetica,sans-Serif" font-size="9.00" fill="#e63946">curate failing traces</text>
<text text-anchor="start" x="255.99" y="-60.81" font-family="Helvetica,sans-Serif" font-size="9.00" fill="#e63946">into the dataset</text>
</g>
<!-- c -->
<g id="node4" class="node">
<title>c</title>
<path fill="#2a9d8f" stroke="black" d="M710.72,-110.63C710.72,-110.63 586.04,-110.63 586.04,-110.63 580.04,-110.63 574.04,-104.63 574.04,-98.63 574.04,-98.63 574.04,-67.59 574.04,-67.59 574.04,-61.59 580.04,-55.59 586.04,-55.59 586.04,-55.59 710.72,-55.59 710.72,-55.59 716.72,-55.59 722.72,-61.59 722.72,-67.59 722.72,-67.59 722.72,-98.63 722.72,-98.63 722.72,-104.63 716.72,-110.63 710.72,-110.63"/>
<text text-anchor="start" x="625.88" y="-88.71" font-family="Helvetica,sans-Serif" font-weight="bold" font-size="12.00" fill="white">GUARD</text>
<text text-anchor="start" x="600.76" y="-78.61" font-family="Helvetica,sans-Serif" font-size="10.00" fill="white">Module C — secure it</text>
<text text-anchor="start" x="589.88" y="-68.61" font-family="Helvetica,sans-Serif" font-size="10.00" fill="white">input + output, 4 strategies</text>
</g>
<!-- b&#45;&gt;c -->
<g id="edge3" class="edge">
<title>b&#45;&gt;c</title>
<path fill="none" stroke="#555555" stroke-width="1.4" d="M537.45,-83.11C545.52,-83.11 553.65,-83.11 561.64,-83.11"/>
<polygon fill="#555555" stroke="#555555" stroke-width="1.4" points="561.51,-86.61 571.51,-83.11 561.51,-79.61 561.51,-86.61"/>
</g>
<!-- d -->
<g id="node5" class="node">
<title>d</title>
<path fill="#e9a13b" stroke="black" d="M872.4,-110.63C872.4,-110.63 771.72,-110.63 771.72,-110.63 765.72,-110.63 759.72,-104.63 759.72,-98.63 759.72,-98.63 759.72,-67.59 759.72,-67.59 759.72,-61.59 765.72,-55.59 771.72,-55.59 771.72,-55.59 872.4,-55.59 872.4,-55.59 878.4,-55.59 884.4,-61.59 884.4,-67.59 884.4,-67.59 884.4,-98.63 884.4,-98.63 884.4,-104.63 878.4,-110.63 872.4,-110.63"/>
<text text-anchor="start" x="793.94" y="-88.71" font-family="Helvetica,sans-Serif" font-weight="bold" font-size="12.00" fill="white">OPTIMIZE</text>
<text text-anchor="start" x="776.69" y="-78.61" font-family="Helvetica,sans-Serif" font-size="10.00" fill="white">Module D — afford it</text>
<text text-anchor="start" x="775.56" y="-68.61" font-family="Helvetica,sans-Serif" font-size="10.00" fill="white">tiktoken · before/after</text>
</g>
<!-- c&#45;&gt;d -->
<g id="edge4" class="edge">
<title>c&#45;&gt;d</title>
<path fill="none" stroke="#555555" stroke-width="1.4" d="M723.18,-83.11C731.21,-83.11 739.38,-83.11 747.41,-83.11"/>
<polygon fill="#555555" stroke="#555555" stroke-width="1.4" points="747.32,-86.61 757.32,-83.11 747.32,-79.61 747.32,-86.61"/>
</g>
<!-- d&#45;&gt;deploy -->
<g id="edge5" class="edge">
<title>d&#45;&gt;deploy</title>
<path fill="none" stroke="#999999" stroke-width="1.4" d="M759.48,-56.74C747.48,-52.52 734.85,-48.69 722.72,-46.11 460.27,9.88 379.01,20.01 118.93,-46.11 107.08,-49.12 94.87,-54.03 83.77,-59.31"/>
<polygon fill="#999999" stroke="#999999" stroke-width="1.4" points="82.36,-56.1 74.98,-63.7 85.49,-62.36 82.36,-56.1"/>
<text text-anchor="middle" x="440.95" y="-12.08" font-family="Helvetica,sans-Serif" font-size="10.00"> &#160;ship</text>
</g>
</g>
</svg>
