<?xml version="1.0" encoding="UTF-8" standalone="no"?>
<!DOCTYPE svg PUBLIC "-//W3C//DTD SVG 1.1//EN"
 "http://www.w3.org/Graphics/SVG/1.1/DTD/svg11.dtd">
<!-- Generated by graphviz version 12.2.1 (20241206.2353)
 -->
<!-- Title: trace_tree Pages: 1 -->
<svg width="966pt" height="326pt"
 viewBox="0.00 0.00 966.04 326.40" xmlns="http://www.w3.org/2000/svg" xmlns:xlink="http://www.w3.org/1999/xlink">
<g id="graph0" class="graph" transform="scale(1 1) rotate(0) translate(4 322.4)">
<title>trace_tree</title>
<polygon fill="white" stroke="none" points="-4,4 -4,-322.4 962.04,-322.4 962.04,4 -4,4"/>
<text text-anchor="start" x="294.52" y="-298.3" font-family="Helvetica,sans-Serif" font-weight="bold" font-size="18.00">Module A — A Trace Is the New Stack Trace</text>
<text text-anchor="start" x="286.64" y="-286.95" font-family="Helvetica,sans-Serif" font-size="11.00" fill="#666666">Policy query trace tree · each node is an inspectable run with I/O, tokens, latency</text>
<!-- trace -->
<g id="node1" class="node">
<title>trace</title>
<path fill="#1d3557" stroke="black" d="M434.54,-281.4C434.54,-281.4 259.25,-281.4 259.25,-281.4 253.25,-281.4 247.25,-275.4 247.25,-269.4 247.25,-269.4 247.25,-257.4 247.25,-257.4 247.25,-251.4 253.25,-245.4 259.25,-245.4 259.25,-245.4 434.54,-245.4 434.54,-245.4 440.54,-245.4 446.54,-251.4 446.54,-257.4 446.54,-257.4 446.54,-269.4 446.54,-269.4 446.54,-275.4 440.54,-281.4 434.54,-281.4"/>
<text text-anchor="start" x="258.77" y="-263.95" font-family="Helvetica,sans-Serif" font-weight="bold" font-size="11.00" fill="white">TRACE</text>
<text text-anchor="start" x="297.77" y="-263.95" font-family="Helvetica,sans-Serif" font-size="11.00" fill="white"> &#160;&quot;What is the overdraft fee?&quot;</text>
<text text-anchor="start" x="294.02" y="-254.85" font-family="Helvetica,sans-Serif" font-size="9.00" fill="white">total ~1,410ms · ~$0.0002</text>
</g>
<!-- cls -->
<g id="node2" class="node">
<title>cls</title>
<path fill="#f1c0c5" stroke="black" d="M325.91,-209.4C325.91,-209.4 191.88,-209.4 191.88,-209.4 185.88,-209.4 179.88,-203.4 179.88,-197.4 179.88,-197.4 179.88,-185.4 179.88,-185.4 179.88,-179.4 185.88,-173.4 191.88,-173.4 191.88,-173.4 325.91,-173.4 325.91,-173.4 331.91,-173.4 337.91,-179.4 337.91,-185.4 337.91,-185.4 337.91,-197.4 337.91,-197.4 337.91,-203.4 331.91,-209.4 325.91,-209.4"/>
<text text-anchor="start" x="191.39" y="-187.95" font-family="Helvetica,sans-Serif" font-size="11.00">[chain] classify_intent &#160;</text>
<text text-anchor="start" x="298.64" y="-187.95" font-family="Helvetica,sans-Serif" font-size="9.00">333ms</text>
</g>
<!-- trace&#45;&gt;cls -->
<g id="edge1" class="edge">
<title>trace&#45;&gt;cls</title>
<path fill="none" stroke="#555555" d="M325.14,-245.1C314.46,-236.6 301.4,-226.21 289.71,-216.91"/>
<polygon fill="#555555" stroke="#555555" points="291.89,-214.18 281.89,-210.69 287.53,-219.65 291.89,-214.18"/>
</g>
<!-- pol -->
<g id="node4" class="node">
<title>pol</title>
<path fill="#bcd4e0" stroke="black" d="M535.29,-209.4C535.29,-209.4 400.5,-209.4 400.5,-209.4 394.5,-209.4 388.5,-203.4 388.5,-197.4 388.5,-197.4 388.5,-185.4 388.5,-185.4 388.5,-179.4 394.5,-173.4 400.5,-173.4 400.5,-173.4 535.29,-173.4 535.29,-173.4 541.29,-173.4 547.29,-179.4 547.29,-185.4 547.29,-185.4 547.29,-197.4 547.29,-197.4 547.29,-203.4 541.29,-209.4 535.29,-209.4"/>
<text text-anchor="start" x="400.02" y="-187.95" font-family="Helvetica,sans-Serif" font-size="11.00">[chain] policy_agent &#160;</text>
<text text-anchor="start" x="500.52" y="-187.95" font-family="Helvetica,sans-Serif" font-size="9.00">1,077ms</text>
</g>
<!-- trace&#45;&gt;pol -->
<g id="edge2" class="edge">
<title>trace&#45;&gt;pol</title>
<path fill="none" stroke="#555555" d="M377.12,-244.92C392.68,-235.91 411.85,-224.82 428.55,-215.16"/>
<polygon fill="#555555" stroke="#555555" points="429.85,-218.46 436.75,-210.42 426.34,-212.4 429.85,-218.46"/>
</g>
<!-- clsl -->
<g id="node3" class="node">
<title>clsl</title>
<path fill="#ffe5e8" stroke="black" d="M251.79,-137.4C251.79,-137.4 12,-137.4 12,-137.4 6,-137.4 0,-131.4 0,-125.4 0,-125.4 0,-113.4 0,-113.4 0,-107.4 6,-101.4 12,-101.4 12,-101.4 251.79,-101.4 251.79,-101.4 257.79,-101.4 263.79,-107.4 263.79,-113.4 263.79,-113.4 263.79,-125.4 263.79,-125.4 263.79,-131.4 257.79,-137.4 251.79,-137.4"/>
<text text-anchor="start" x="11.52" y="-117.08" font-family="Helvetica,sans-Serif" font-size="11.00">[llm] ChatOpenAI → &quot;policy&quot; &#160;</text>
<text text-anchor="start" x="151.77" y="-117.08" font-family="Helvetica,sans-Serif" font-size="9.00">87 prompt / 3 completion</text>
</g>
<!-- cls&#45;&gt;clsl -->
<g id="edge3" class="edge">
<title>cls&#45;&gt;clsl</title>
<path fill="none" stroke="#555555" d="M227.18,-172.92C210.84,-163.91 190.72,-152.82 173.19,-143.16"/>
<polygon fill="#555555" stroke="#555555" points="174.98,-140.15 164.54,-138.39 171.6,-146.28 174.98,-140.15"/>
</g>
<!-- ret -->
<g id="node5" class="node">
<title>ret</title>
<path fill="#dbe9f1" stroke="black" d="M455.79,-137.4C455.79,-137.4 294,-137.4 294,-137.4 288,-137.4 282,-131.4 282,-125.4 282,-125.4 282,-113.4 282,-113.4 282,-107.4 288,-101.4 294,-101.4 294,-101.4 455.79,-101.4 455.79,-101.4 461.79,-101.4 467.79,-107.4 467.79,-113.4 467.79,-113.4 467.79,-125.4 467.79,-125.4 467.79,-131.4 461.79,-137.4 455.79,-137.4"/>
<text text-anchor="start" x="293.52" y="-119.95" font-family="Helvetica,sans-Serif" font-size="11.00">[retriever] Chroma &#160;</text>
<text text-anchor="start" x="387.27" y="-119.95" font-family="Helvetica,sans-Serif" font-size="9.00">180ms · 0 tokens</text>
<text text-anchor="start" x="318.64" y="-110.85" font-family="Helvetica,sans-Serif" font-size="9.00">→ account_fees.md chunks</text>
</g>
<!-- pol&#45;&gt;ret -->
<g id="edge4" class="edge">
<title>pol&#45;&gt;ret</title>
<path fill="none" stroke="#555555" d="M444.91,-173.1C433.5,-164.51 419.54,-154.01 407.1,-144.64"/>
<polygon fill="#555555" stroke="#555555" points="409.25,-141.87 399.15,-138.66 405.04,-147.47 409.25,-141.87"/>
</g>
<!-- fmt -->
<g id="node6" class="node">
<title>fmt</title>
<path fill="#dbe9f1" stroke="black" d="M625.91,-137.4C625.91,-137.4 497.88,-137.4 497.88,-137.4 491.88,-137.4 485.88,-131.4 485.88,-125.4 485.88,-125.4 485.88,-113.4 485.88,-113.4 485.88,-107.4 491.88,-101.4 497.88,-101.4 497.88,-101.4 625.91,-101.4 625.91,-101.4 631.91,-101.4 637.91,-107.4 637.91,-113.4 637.91,-113.4 637.91,-125.4 637.91,-125.4 637.91,-131.4 631.91,-137.4 625.91,-137.4"/>
<text text-anchor="start" x="497.39" y="-115.95" font-family="Helvetica,sans-Serif" font-size="11.00">[function] format_docs &#160;</text>
<text text-anchor="start" x="609.14" y="-115.95" font-family="Helvetica,sans-Serif" font-size="9.00">2ms</text>
</g>
<!-- pol&#45;&gt;fmt -->
<g id="edge5" class="edge">
<title>pol&#45;&gt;fmt</title>
<path fill="none" stroke="#555555" d="M491.13,-173.1C502.77,-164.43 517.04,-153.8 529.72,-144.36"/>
<polygon fill="#555555" stroke="#555555" points="531.46,-147.43 537.39,-138.65 527.28,-141.82 531.46,-147.43"/>
</g>
<!-- poll -->
<g id="node7" class="node">
<title>poll</title>
<path fill="#dbe9f1" stroke="black" d="M925.79,-137.4C925.79,-137.4 668,-137.4 668,-137.4 662,-137.4 656,-131.4 656,-125.4 656,-125.4 656,-113.4 656,-113.4 656,-107.4 662,-101.4 668,-101.4 668,-101.4 925.79,-101.4 925.79,-101.4 931.79,-101.4 937.79,-107.4 937.79,-113.4 937.79,-113.4 937.79,-125.4 937.79,-125.4 937.79,-131.4 931.79,-137.4 925.79,-137.4"/>
<text text-anchor="start" x="667.52" y="-117.08" font-family="Helvetica,sans-Serif" font-size="11.00">[llm] ChatOpenAI → &quot;$35...&quot; &#160;</text>
<text text-anchor="start" x="807.77" y="-117.08" font-family="Helvetica,sans-Serif" font-size="9.00">1,240 prompt / 85 completion</text>
</g>
<!-- pol&#45;&gt;poll -->
<g id="edge6" class="edge">
<title>pol&#45;&gt;poll</title>
<path fill="none" stroke="#555555" d="M547.54,-173.45C594.65,-163.43 654.56,-150.68 703.85,-140.2"/>
<polygon fill="#555555" stroke="#555555" points="704.31,-143.68 713.36,-138.17 702.85,-136.83 704.31,-143.68"/>
</g>
<!-- fails -->
<g id="node8" class="node">
<title>fails</title>
<polygon fill="#fff3cd" stroke="black" points="952.04,-65.4 635.75,-65.4 635.75,0 958.04,0 958.04,-59.4 952.04,-65.4"/>
<polyline fill="none" stroke="black" points="952.04,-65.4 952.04,-59.4"/>
<polyline fill="none" stroke="black" points="958.04,-59.4 952.04,-59.4"/>
<text text-anchor="start" x="647.27" y="-48.75" font-family="Helvetica,sans-Serif" font-weight="bold" font-size="11.00" fill="#664d03">Where does it break? &#160;Open the trace, point at one step:</text>
<text text-anchor="start" x="647.27" y="-38.7" font-family="Helvetica,sans-Serif" font-size="10.00" fill="#664d03">① Supervisor misrouted? &#160;&#160;&#160;&#160;→ fix routing prompt</text>
<text text-anchor="start" x="647.27" y="-28.7" font-family="Helvetica,sans-Serif" font-size="10.00" fill="#664d03">② Retriever wrong docs? &#160;&#160;&#160;&#160;&#160;→ fix embeddings / chunk_size / k</text>
<text text-anchor="start" x="647.27" y="-18.7" font-family="Helvetica,sans-Serif" font-size="10.00" fill="#664d03">③ Right docs ranked too low? → increase k / rerank</text>
<text text-anchor="start" x="647.27" y="-8.7" font-family="Helvetica,sans-Serif" font-size="10.00" fill="#664d03">④ Right docs, wrong answer? &#160;→ hallucination → strengthen prompt</text>
</g>
<!-- poll&#45;&gt;fails -->
<g id="edge7" class="edge">
<title>poll&#45;&gt;fails</title>
<path fill="none" stroke="#b8860b" stroke-dasharray="1,5" d="M796.89,-101.26C796.89,-91.11 796.89,-77.92 796.89,-65.89"/>
</g>
</g>
</svg>
