<?xml version="1.0" encoding="UTF-8" standalone="no"?>
<!DOCTYPE svg PUBLIC "-//W3C//DTD SVG 1.1//EN"
 "http://www.w3.org/Graphics/SVG/1.1/DTD/svg11.dtd">
<!-- Generated by graphviz version 12.2.1 (20241206.2353)
 -->
<!-- Title: eval_layers Pages: 1 -->
<svg width="502pt" height="546pt"
 viewBox="0.00 0.00 502.05 545.68" xmlns="http://www.w3.org/2000/svg" xmlns:xlink="http://www.w3.org/1999/xlink">
<g id="graph0" class="graph" transform="scale(1 1) rotate(0) translate(4 541.68)">
<title>eval_layers</title>
<polygon fill="white" stroke="none" points="-4,4 -4,-541.68 498.05,-541.68 498.05,4 -4,4"/>
<text text-anchor="start" x="85.77" y="-517.58" font-family="Helvetica,sans-Serif" font-weight="bold" font-size="18.00">Module B — Five Layers, Five Metrics</text>
<text text-anchor="start" x="49.77" y="-506.23" font-family="Helvetica,sans-Serif" font-size="11.00" fill="#666666">One &quot;is it good?&quot; score hides which layer broke · fix routing first — failures cascade</text>
<!-- l1 -->
<g id="node1" class="node">
<title>l1</title>
<path fill="#e63946" stroke="black" d="M353.67,-500.68C353.67,-500.68 130.62,-500.68 130.62,-500.68 124.62,-500.68 118.62,-494.68 118.62,-488.68 118.62,-488.68 118.62,-475.4 118.62,-475.4 118.62,-469.4 124.62,-463.4 130.62,-463.4 130.62,-463.4 353.67,-463.4 353.67,-463.4 359.67,-463.4 365.67,-469.4 365.67,-475.4 365.67,-475.4 365.67,-488.68 365.67,-488.68 365.67,-494.68 359.67,-500.68 353.67,-500.68"/>
<text text-anchor="start" x="176.15" y="-482.59" font-family="Helvetica,sans-Serif" font-weight="bold" font-size="11.00" fill="white">1 · ROUTING</text>
<text text-anchor="start" x="242.15" y="-482.59" font-family="Helvetica,sans-Serif" font-size="11.00" fill="white"> &#160;&#160;right agent?</text>
<text text-anchor="start" x="133.02" y="-473.49" font-family="Helvetica,sans-Serif" font-size="9.00" fill="white">metric: routing_accuracy (exact match) — most critical</text>
</g>
<!-- l2 -->
<g id="node2" class="node">
<title>l2</title>
<path fill="#d36b75" stroke="black" d="M328.92,-414.65C328.92,-414.65 155.37,-414.65 155.37,-414.65 149.37,-414.65 143.37,-408.65 143.37,-402.65 143.37,-402.65 143.37,-389.37 143.37,-389.37 143.37,-383.37 149.37,-377.37 155.37,-377.37 155.37,-377.37 328.92,-377.37 328.92,-377.37 334.92,-377.37 340.92,-383.37 340.92,-389.37 340.92,-389.37 340.92,-402.65 340.92,-402.65 340.92,-408.65 334.92,-414.65 328.92,-414.65"/>
<text text-anchor="start" x="157.77" y="-396.56" font-family="Helvetica,sans-Serif" font-weight="bold" font-size="11.00" fill="white">2 · RETRIEVAL</text>
<text text-anchor="start" x="235.02" y="-396.56" font-family="Helvetica,sans-Serif" font-size="11.00" fill="white"> &#160;&#160;right documents?</text>
<text text-anchor="start" x="168.27" y="-387.46" font-family="Helvetica,sans-Serif" font-size="9.00" fill="white">metric: did it fetch account_fees.md?</text>
</g>
<!-- l1&#45;&gt;l2 -->
<g id="edge1" class="edge">
<title>l1&#45;&gt;l2</title>
<path fill="none" stroke="#555555" stroke-width="1.3" d="M242.15,-463.22C242.15,-452.71 242.15,-439.13 242.15,-427.01"/>
<polygon fill="#555555" stroke="#555555" stroke-width="1.3" points="245.65,-427.06 242.15,-417.06 238.65,-427.06 245.65,-427.06"/>
<text text-anchor="middle" x="271.02" y="-435.9" font-family="Helvetica,sans-Serif" font-size="10.00"> &#160;cascades ↓</text>
</g>
<!-- l3 -->
<g id="node3" class="node">
<title>l3</title>
<path fill="#457b9d" stroke="black" d="M336.05,-328.62C336.05,-328.62 148.25,-328.62 148.25,-328.62 142.25,-328.62 136.25,-322.62 136.25,-316.62 136.25,-316.62 136.25,-303.34 136.25,-303.34 136.25,-297.34 142.25,-291.34 148.25,-291.34 148.25,-291.34 336.05,-291.34 336.05,-291.34 342.05,-291.34 348.05,-297.34 348.05,-303.34 348.05,-303.34 348.05,-316.62 348.05,-316.62 348.05,-322.62 342.05,-328.62 336.05,-328.62"/>
<text text-anchor="start" x="150.65" y="-310.53" font-family="Helvetica,sans-Serif" font-weight="bold" font-size="11.00" fill="white">3 · RANKING</text>
<text text-anchor="start" x="218.15" y="-310.53" font-family="Helvetica,sans-Serif" font-size="11.00" fill="white"> &#160;&#160;right doc ranked high?</text>
<text text-anchor="start" x="166.02" y="-301.43" font-family="Helvetica,sans-Serif" font-size="9.00" fill="white">metric: MRR (Mean Reciprocal Rank)</text>
</g>
<!-- l2&#45;&gt;l3 -->
<g id="edge2" class="edge">
<title>l2&#45;&gt;l3</title>
<path fill="none" stroke="#555555" stroke-width="1.3" d="M242.15,-377.19C242.15,-366.68 242.15,-353.1 242.15,-340.98"/>
<polygon fill="#555555" stroke="#555555" stroke-width="1.3" points="245.65,-341.03 242.15,-331.03 238.65,-341.03 245.65,-341.03"/>
<text text-anchor="middle" x="271.02" y="-349.87" font-family="Helvetica,sans-Serif" font-size="10.00"> &#160;cascades ↓</text>
</g>
<!-- l4 -->
<g id="node4" class="node">
<title>l4</title>
<path fill="#2a9d8f" stroke="black" d="M365.3,-242.59C365.3,-242.59 119,-242.59 119,-242.59 113,-242.59 107,-236.59 107,-230.59 107,-230.59 107,-217.31 107,-217.31 107,-211.31 113,-205.31 119,-205.31 119,-205.31 365.3,-205.31 365.3,-205.31 371.3,-205.31 377.3,-211.31 377.3,-217.31 377.3,-217.31 377.3,-230.59 377.3,-230.59 377.3,-236.59 371.3,-242.59 365.3,-242.59"/>
<text text-anchor="start" x="121.4" y="-224.5" font-family="Helvetica,sans-Serif" font-weight="bold" font-size="11.00" fill="white">4 · FAITHFULNESS</text>
<text text-anchor="start" x="221.15" y="-224.5" font-family="Helvetica,sans-Serif" font-size="11.00" fill="white"> &#160;&#160;grounded, not hallucinated?</text>
<text text-anchor="start" x="151.4" y="-215.4" font-family="Helvetica,sans-Serif" font-size="9.00" fill="white">metric: LLM&#45;as&#45;judge — faithful to CONTEXT</text>
</g>
<!-- l3&#45;&gt;l4 -->
<g id="edge3" class="edge">
<title>l3&#45;&gt;l4</title>
<path fill="none" stroke="#555555" stroke-width="1.3" d="M242.15,-291.16C242.15,-280.65 242.15,-267.07 242.15,-254.95"/>
<polygon fill="#555555" stroke="#555555" stroke-width="1.3" points="245.65,-255 242.15,-245 238.65,-255 245.65,-255"/>
<text text-anchor="middle" x="271.02" y="-263.84" font-family="Helvetica,sans-Serif" font-size="10.00"> &#160;cascades ↓</text>
</g>
<!-- l5 -->
<g id="node5" class="node">
<title>l5</title>
<path fill="#e9a13b" stroke="black" d="M216.3,-147.56C216.3,-147.56 12,-147.56 12,-147.56 6,-147.56 0,-141.56 0,-135.56 0,-135.56 0,-122.28 0,-122.28 0,-116.28 6,-110.28 12,-110.28 12,-110.28 216.3,-110.28 216.3,-110.28 222.3,-110.28 228.3,-116.28 228.3,-122.28 228.3,-122.28 228.3,-135.56 228.3,-135.56 228.3,-141.56 222.3,-147.56 216.3,-147.56"/>
<text text-anchor="start" x="14.4" y="-129.47" font-family="Helvetica,sans-Serif" font-weight="bold" font-size="11.00" fill="white">5 · CORRECTNESS</text>
<text text-anchor="start" x="115.65" y="-129.47" font-family="Helvetica,sans-Serif" font-size="11.00" fill="white"> &#160;&#160;matches the truth?</text>
<text text-anchor="start" x="33.9" y="-120.37" font-family="Helvetica,sans-Serif" font-size="9.00" fill="white">metric: LLM&#45;as&#45;judge — vs ground truth</text>
</g>
<!-- l4&#45;&gt;l5 -->
<g id="edge4" class="edge">
<title>l4&#45;&gt;l5</title>
<path fill="none" stroke="#555555" stroke-width="1.3" d="M217.47,-205.01C197.81,-190.73 170.08,-170.57 148.29,-154.74"/>
<polygon fill="#555555" stroke="#555555" stroke-width="1.3" points="150.49,-152.01 140.35,-148.96 146.38,-157.67 150.49,-152.01"/>
<text text-anchor="middle" x="218.49" y="-177.81" font-family="Helvetica,sans-Serif" font-size="10.00"> &#160;cascades ↓</text>
</g>
<!-- trap -->
<g id="node6" class="node">
<title>trap</title>
<polygon fill="#fff3cd" stroke="black" points="488.05,-156.56 246.25,-156.56 246.25,-101.28 494.05,-101.28 494.05,-150.56 488.05,-156.56"/>
<polyline fill="none" stroke="black" points="488.05,-156.56 488.05,-150.56"/>
<polyline fill="none" stroke="black" points="494.05,-150.56 488.05,-150.56"/>
<text text-anchor="start" x="260.65" y="-138.47" font-family="Helvetica,sans-Serif" font-weight="bold" font-size="11.00" fill="#664d03">The trap: faithfulness ≠ correctness</text>
<text text-anchor="start" x="260.65" y="-129.37" font-family="Helvetica,sans-Serif" font-size="9.00" fill="#664d03">Retriever returns the WRONG doc, LLM summarizes it</text>
<text text-anchor="start" x="260.65" y="-120.37" font-family="Helvetica,sans-Serif" font-size="9.00" fill="#664d03">accurately → faithfulness 1.0, correctness 0.0.</text>
<text text-anchor="start" x="336.4" y="-111.37" font-family="Helvetica,sans-Serif" font-size="9.00" fill="#664d03">You need BOTH.</text>
</g>
<!-- l4&#45;&gt;trap -->
<g id="edge5" class="edge">
<title>l4&#45;&gt;trap</title>
<path fill="none" stroke="#b8860b" stroke-width="1.3" stroke-dasharray="1,5" d="M266.83,-205.01C285.57,-191.39 311.66,-172.43 332.93,-156.97"/>
</g>
<!-- tooling -->
<g id="node7" class="node">
<title>tooling</title>
<polygon fill="#e8f4ea" stroke="black" points="209.17,-64.28 13.12,-64.28 13.12,0 215.17,0 215.17,-58.28 209.17,-64.28"/>
<polyline fill="none" stroke="black" points="209.17,-64.28 209.17,-58.28"/>
<polyline fill="none" stroke="black" points="215.17,-58.28 209.17,-58.28"/>
<text text-anchor="start" x="27.52" y="-46.19" font-family="Helvetica,sans-Serif" font-weight="bold" font-size="11.00" fill="#1b4332">Tooling</text>
<text text-anchor="start" x="27.52" y="-37.09" font-family="Helvetica,sans-Serif" font-size="9.00" fill="#1b4332">LangSmith: traces · UI · A/B experiments</text>
<text text-anchor="start" x="27.52" y="-28.09" font-family="Helvetica,sans-Serif" font-size="9.00" fill="#1b4332">DeepEval: pytest&#45;native metrics → CI gate</text>
<text text-anchor="start" x="27.52" y="-19.09" font-family="Helvetica,sans-Serif" font-size="9.00" fill="#1b4332">G&#45;Eval: plain&#45;English rubric (e.g. empathy)</text>
<text text-anchor="start" x="27.52" y="-10.09" font-family="Helvetica,sans-Serif" font-size="9.00" fill="#1b4332">num_repetitions=3: temp=0 ≠ deterministic</text>
</g>
<!-- l5&#45;&gt;tooling -->
<g id="edge6" class="edge">
<title>l5&#45;&gt;tooling</title>
<path fill="none" stroke="#2a9d8f" stroke-width="1.3" stroke-dasharray="1,5" d="M114.15,-110.09C114.15,-97.33 114.15,-79.8 114.15,-64.7"/>
</g>
</g>
</svg>
