<?xml version="1.0" encoding="UTF-8" standalone="no"?>
<!DOCTYPE svg PUBLIC "-//W3C//DTD SVG 1.1//EN"
 "http://www.w3.org/Graphics/SVG/1.1/DTD/svg11.dtd">
<!-- Generated by graphviz version 12.2.1 (20241206.2353)
 -->
<!-- Title: cost_structure Pages: 1 -->
<svg width="750pt" height="264pt"
 viewBox="0.00 0.00 749.76 264.28" xmlns="http://www.w3.org/2000/svg" xmlns:xlink="http://www.w3.org/1999/xlink">
<g id="graph0" class="graph" transform="scale(1 1) rotate(0) translate(4 260.28)">
<title>cost_structure</title>
<polygon fill="white" stroke="none" points="-4,4 -4,-260.28 745.76,-260.28 745.76,4 -4,4"/>
<text text-anchor="start" x="223.51" y="-236.18" font-family="Helvetica,sans-Serif" font-weight="bold" font-size="18.00">Module D — Where the Tokens Go</text>
<text text-anchor="start" x="127.51" y="-224.83" font-family="Helvetica,sans-Serif" font-size="11.00" fill="#666666">Every query = supervisor + specialist · retrieved context is the expensive part · output costs 4–5× input</text>
<!-- sup -->
<g id="node1" class="node">
<title>sup</title>
<path fill="#e63946" stroke="black" d="M133.17,-123.78C133.17,-123.78 12,-123.78 12,-123.78 6,-123.78 0,-117.78 0,-111.78 0,-111.78 0,-89.5 0,-89.5 0,-83.5 6,-77.5 12,-77.5 12,-77.5 133.17,-77.5 133.17,-77.5 139.17,-77.5 145.17,-83.5 145.17,-89.5 145.17,-89.5 145.17,-111.78 145.17,-111.78 145.17,-117.78 139.17,-123.78 133.17,-123.78"/>
<text text-anchor="start" x="36.21" y="-105.69" font-family="Helvetica,sans-Serif" font-weight="bold" font-size="11.00" fill="white">SUPERVISOR</text>
<text text-anchor="start" x="41.09" y="-96.59" font-family="Helvetica,sans-Serif" font-size="9.00" fill="white">~100 in / ~3 out</text>
<text text-anchor="start" x="12.96" y="-87.59" font-family="Helvetica,sans-Serif" font-size="9.00" fill="white">cheap, runs on EVERY query</text>
</g>
<!-- policy -->
<g id="node2" class="node">
<title>policy</title>
<path fill="#457b9d" stroke="black" d="M369.09,-201.28C369.09,-201.28 239.67,-201.28 239.67,-201.28 233.67,-201.28 227.67,-195.28 227.67,-189.28 227.67,-189.28 227.67,-158 227.67,-158 227.67,-152 233.67,-146 239.67,-146 239.67,-146 369.09,-146 369.09,-146 375.09,-146 381.09,-152 381.09,-158 381.09,-158 381.09,-189.28 381.09,-189.28 381.09,-195.28 375.09,-201.28 369.09,-201.28"/>
<text text-anchor="start" x="266.13" y="-183.19" font-family="Helvetica,sans-Serif" font-weight="bold" font-size="11.00" fill="white">POLICY (RAG)</text>
<text text-anchor="start" x="245.51" y="-174.09" font-family="Helvetica,sans-Serif" font-size="9.00" fill="white">~730–1,330 in / ~50–150 out</text>
<text text-anchor="start" x="240.63" y="-165.09" font-family="Helvetica,sans-Serif" font-size="9.00" fill="white">retrieved context = the big lever</text>
<text text-anchor="start" x="283.76" y="-156.09" font-family="Helvetica,sans-Serif" font-size="9.00" fill="white">≈ $0.0003</text>
</g>
<!-- sup&#45;&gt;policy -->
<g id="edge1" class="edge">
<title>sup&#45;&gt;policy</title>
<path fill="none" stroke="#555555" d="M145.66,-123.54C168.05,-130.65 192.96,-138.56 216.26,-145.96"/>
<polygon fill="#555555" stroke="#555555" points="215.15,-149.29 225.74,-148.98 217.27,-142.61 215.15,-149.29"/>
<text text-anchor="middle" x="186.42" y="-144.88" font-family="Helvetica,sans-Serif" font-size="9.00"> &#160;policy</text>
</g>
<!-- account -->
<g id="node3" class="node">
<title>account</title>
<path fill="#2a9d8f" stroke="black" d="M339.47,-128.28C339.47,-128.28 269.3,-128.28 269.3,-128.28 263.3,-128.28 257.3,-122.28 257.3,-116.28 257.3,-116.28 257.3,-85 257.3,-85 257.3,-79 263.3,-73 269.3,-73 269.3,-73 339.47,-73 339.47,-73 345.47,-73 351.47,-79 351.47,-85 351.47,-85 351.47,-116.28 351.47,-116.28 351.47,-122.28 345.47,-128.28 339.47,-128.28"/>
<text text-anchor="start" x="276.26" y="-110.19" font-family="Helvetica,sans-Serif" font-weight="bold" font-size="11.00" fill="white">ACCOUNT</text>
<text text-anchor="start" x="270.26" y="-101.09" font-family="Helvetica,sans-Serif" font-size="9.00" fill="white">~300 in / ~70 out</text>
<text text-anchor="start" x="275.13" y="-92.09" font-family="Helvetica,sans-Serif" font-size="9.00" fill="white">account JSON</text>
<text text-anchor="start" x="283.76" y="-83.09" font-family="Helvetica,sans-Serif" font-size="9.00" fill="white">≈ $0.0001</text>
</g>
<!-- sup&#45;&gt;account -->
<g id="edge2" class="edge">
<title>sup&#45;&gt;account</title>
<path fill="none" stroke="#555555" d="M145.66,-100.64C177.88,-100.64 215.33,-100.64 245.65,-100.64"/>
<polygon fill="#555555" stroke="#555555" points="245.39,-104.14 255.39,-100.64 245.39,-97.14 245.39,-104.14"/>
<text text-anchor="middle" x="186.42" y="-101.84" font-family="Helvetica,sans-Serif" font-size="9.00"> &#160;account</text>
</g>
<!-- escal -->
<g id="node4" class="node">
<title>escal</title>
<path fill="#e9a13b" stroke="black" d="M351.84,-55.28C351.84,-55.28 256.92,-55.28 256.92,-55.28 250.92,-55.28 244.92,-49.28 244.92,-43.28 244.92,-43.28 244.92,-12 244.92,-12 244.92,-6 250.92,0 256.92,0 256.92,0 351.84,0 351.84,0 357.84,0 363.84,-6 363.84,-12 363.84,-12 363.84,-43.28 363.84,-43.28 363.84,-49.28 357.84,-55.28 351.84,-55.28"/>
<text text-anchor="start" x="268.76" y="-37.19" font-family="Helvetica,sans-Serif" font-weight="bold" font-size="11.00" fill="white">ESCALATION</text>
<text text-anchor="start" x="267.63" y="-28.09" font-family="Helvetica,sans-Serif" font-size="9.00" fill="white">~120 in / ~100 out</text>
<text text-anchor="start" x="257.88" y="-19.09" font-family="Helvetica,sans-Serif" font-size="9.00" fill="white">no context — cheapest</text>
<text text-anchor="start" x="283.76" y="-10.09" font-family="Helvetica,sans-Serif" font-size="9.00" fill="white">≈ $0.0001</text>
</g>
<!-- sup&#45;&gt;escal -->
<g id="edge3" class="edge">
<title>sup&#45;&gt;escal</title>
<path fill="none" stroke="#555555" d="M145.66,-77.74C173.78,-68.81 205.9,-58.61 233.77,-49.75"/>
<polygon fill="#555555" stroke="#555555" points="234.72,-53.12 243.19,-46.76 232.6,-46.45 234.72,-53.12"/>
<text text-anchor="middle" x="186.42" y="-71.88" font-family="Helvetica,sans-Serif" font-size="9.00"> &#160;escalation</text>
</g>
<!-- levers -->
<g id="node5" class="node">
<title>levers</title>
<polygon fill="#fff3cd" stroke="black" points="735.76,-219.28 418.09,-219.28 418.09,-128 741.76,-128 741.76,-213.28 735.76,-219.28"/>
<polyline fill="none" stroke="black" points="735.76,-219.28 735.76,-213.28"/>
<polyline fill="none" stroke="black" points="741.76,-213.28 735.76,-213.28"/>
<text text-anchor="start" x="431.05" y="-201.19" font-family="Helvetica,sans-Serif" font-weight="bold" font-size="11.00" fill="#664d03">Optimize (then VERIFY quality with Module B)</text>
<text text-anchor="start" x="431.05" y="-192.09" font-family="Helvetica,sans-Serif" font-size="9.00" fill="#664d03">• reduce top_k (5→3) — biggest, simplest lever</text>
<text text-anchor="start" x="431.05" y="-183.09" font-family="Helvetica,sans-Serif" font-size="9.00" fill="#664d03">• reduce chunk_size</text>
<text text-anchor="start" x="431.05" y="-174.09" font-family="Helvetica,sans-Serif" font-size="9.00" fill="#664d03">• prompt caching (identical system prompt → ~10% price)</text>
<text text-anchor="start" x="431.05" y="-165.09" font-family="Helvetica,sans-Serif" font-size="9.00" fill="#664d03">• semantic caching · model routing · Batch API (50% off, offline)</text>
<text text-anchor="start" x="431.05" y="-147.09" font-family="Helvetica,sans-Serif" font-weight="bold" font-size="9.00" fill="#664d03">Before/After: chunk 1000,k5 → 400,k3 ≈ 30–40% fewer prompt tokens</text>
<text text-anchor="start" x="475.3" y="-138.09" font-family="Helvetica,sans-Serif" font-size="9.00" fill="#664d03">Cost savings with quality regression = false savings</text>
</g>
<!-- policy&#45;&gt;levers -->
<g id="edge4" class="edge">
<title>policy&#45;&gt;levers</title>
<path fill="none" stroke="#b8860b" stroke-dasharray="1,5" d="M381.58,-173.64C393.04,-173.64 405.21,-173.64 417.66,-173.64"/>
</g>
</g>
</svg>
